<svg width="62" height="62" viewBox="0 0 62 62" fill="none" xmlns="http://www.w3.org/2000/svg">
<path d="M55.7857 0H10.2143C8.56615 0 6.98553 0.654718 5.82012 1.82012C4.65472 2.98553 4 4.56615 4 6.21429L4 51.7857C4 53.4338 4.65472 55.0145 5.82012 56.1799C6.98553 57.3453 8.56615 58 10.2143 58H27.9833V38.2813H19.827V29H27.9833V21.9261C27.9833 13.8799 32.7734 9.43536 40.1102 9.43536C43.6238 9.43536 47.298 10.062 47.298 10.062V17.9593H43.2497C39.2609 17.9593 38.0167 20.4346 38.0167 22.9734V29H46.9213L45.4972 38.2813H38.0167V58H55.7857C57.4338 58 59.0145 57.3453 60.1799 56.1799C61.3453 55.0145 62 53.4338 62 51.7857V6.21429C62 4.56615 61.3453 2.98553 60.1799 1.82012C59.0145 0.654718 57.4338 0 55.7857 0Z" fill="#E597D4" fill-opacity="0.79"/>
</svg>
