<svg width="25" height="25" viewBox="0 0 25 25" fill="none" xmlns="http://www.w3.org/2000/svg">
<path d="M23.4375 11.7188V16.4062C23.4375 16.5568 23.4201 16.707 23.3856 16.8536L21.8231 23.4942C21.6155 24.3765 20.8282 25 19.9219 25H9.76563C9.45756 25 9.15386 24.9271 8.87934 24.7873C8.60481 24.6475 8.36725 24.4448 8.18604 24.1957L1.93618 15.6019C1.30176 14.7295 1.49463 13.508 2.36695 12.8736C3.23936 12.2391 4.46089 12.432 5.09531 13.3044L6.64063 15.4293V1.95312C6.64063 0.874463 7.51504 0 8.59375 0C9.67246 0 10.5469 0.874463 10.5469 1.95312V11.7188H10.9375V9.76562C10.9375 8.68696 11.8119 7.8125 12.8906 7.8125C13.9693 7.8125 14.8438 8.68696 14.8438 9.76562V11.7188H15.2344V10.5469C15.2344 9.46821 16.1088 8.59375 17.1875 8.59375C18.2662 8.59375 19.1406 9.46821 19.1406 10.5469V11.7188H19.5313C19.5313 10.6401 20.4057 9.76562 21.4844 9.76562C22.5631 9.76562 23.4375 10.6401 23.4375 11.7188ZM10.9375 15.625H10.5469V20.3125H10.9375V15.625ZM15.2344 15.625H14.8438V20.3125H15.2344V15.625ZM19.5313 15.625H19.1406V20.3125H19.5313V15.625Z" fill="#E597D4" fill-opacity="0.79"/>
</svg>
