<svg width="54" height="59" viewBox="0 0 54 59" fill="none" xmlns="http://www.w3.org/2000/svg">
<path d="M54 53.2636C54 56.3067 51.7335 58.7736 48.9375 58.7736H5.0625C2.26652 58.7736 0 56.3067 0 53.2636V23.0415C9.3257e-06 22.206 0.174603 21.3814 0.510572 20.6302C0.846542 19.8789 1.33509 19.2206 1.93925 18.7052C4.5668 16.4634 6.73819 14.6455 19.2572 4.75666C21.0317 3.3485 24.5528 -0.039815 27 0.000362209C29.4467 -0.0402742 32.9691 3.34908 34.7428 4.75654C47.2605 14.6444 49.4349 16.4648 52.0607 18.7052C52.6649 19.2206 53.1535 19.8789 53.4894 20.6302C53.8254 21.3814 54 22.206 54 23.0415V53.2636ZM47.0743 30.6949C46.804 30.2669 46.2622 30.1674 45.8784 30.4759C43.4689 32.4128 40.0289 35.1486 34.7428 39.324C32.9683 40.732 29.4472 44.1201 27 44.0798C24.552 44.1193 21.0348 40.7345 19.2572 39.324C13.9718 35.149 10.5314 32.4131 8.12162 30.4759C7.73782 30.1674 7.19603 30.2669 6.92571 30.6949L5.9689 32.2096C5.84488 32.4059 5.79578 32.6469 5.83197 32.8818C5.86816 33.1167 5.98681 33.3271 6.16286 33.4686C8.57672 35.4084 12.0115 38.1395 17.269 42.2924C19.4073 43.9892 23.2305 47.781 27 47.7534C30.7678 47.7812 34.5896 43.9916 36.7309 42.2924C41.9885 38.1393 45.4234 35.4083 47.837 33.4686C48.0131 33.3271 48.1317 33.1167 48.1679 32.8818C48.2041 32.6469 48.155 32.4059 48.031 32.2096L47.0743 30.6949Z" fill="#E597D4" fill-opacity="0.79"/>
</svg>
