<svg width="62" height="62" viewBox="0 0 62 62" fill="none" xmlns="http://www.w3.org/2000/svg">
<path d="M53.8571 0H4.12991C1.85134 0 0 1.87723 0 4.1817V53.8183C0 56.1228 1.85134 58 4.12991 58H53.8571C56.1357 58 58 56.1228 58 53.8183V4.1817C58 1.87723 56.1357 0 53.8571 0ZM17.5295 49.7143H8.93304V22.0348H17.5424V49.7143H17.5295ZM13.2312 18.2545C10.4737 18.2545 8.24687 16.0147 8.24687 13.2701C8.24687 10.5254 10.4737 8.28571 13.2312 8.28571C15.9759 8.28571 18.2156 10.5254 18.2156 13.2701C18.2156 16.0277 15.9888 18.2545 13.2312 18.2545ZM49.7531 49.7143H41.1567V36.25C41.1567 33.0393 41.092 28.9094 36.6902 28.9094C32.2107 28.9094 31.5246 32.4049 31.5246 36.017V49.7143H22.9281V22.0348H31.175V25.8152H31.2915C32.4437 23.6402 35.2531 21.3487 39.4348 21.3487C48.1348 21.3487 49.7531 27.0839 49.7531 34.5411V49.7143Z" fill="#E597D4" fill-opacity="0.79"/>
</svg>
