<svg width="52" height="52" viewBox="0 0 52 52" fill="none" xmlns="http://www.w3.org/2000/svg">
<g clip-path="url(#clip0_90_165)">
<path d="M50.5162 36.7454L39.1412 31.8704C38.6552 31.6633 38.1152 31.6196 37.6023 31.746C37.0894 31.8724 36.6315 32.162 36.2974 32.5712L31.2599 38.7258C23.354 34.9983 16.9916 28.6359 13.2641 20.73L19.4187 15.6925C19.8287 15.359 20.1189 14.9011 20.2454 14.388C20.3718 13.8748 20.3276 13.3345 20.1195 12.8487L15.2445 1.47373C15.0161 0.95008 14.6122 0.522539 14.1023 0.264828C13.5924 0.00711617 13.0086 -0.064613 12.4516 0.0620088L1.88906 2.49951C1.35197 2.62354 0.872772 2.92595 0.529684 3.35739C0.186596 3.78883 -0.000123724 4.32383 6.15083e-08 4.87506C6.15083e-08 30.9258 21.1148 52.0001 47.125 52.0001C47.6764 52.0004 48.2116 51.8138 48.6433 51.4707C49.0749 51.1276 49.3775 50.6483 49.5016 50.111L51.9391 39.5485C52.0649 38.9887 51.9916 38.4026 51.7319 37.8909C51.4722 37.3793 51.0423 36.9742 50.5162 36.7454Z" fill="#E597D4" fill-opacity="0.79"/>
</g>
<defs>
<clipPath id="clip0_90_165">
<rect width="52" height="52" fill="white"/>
</clipPath>
</defs>
</svg>
