<svg width="25" height="18" viewBox="0 0 25 18" fill="none" xmlns="http://www.w3.org/2000/svg">
<path d="M24.849 8.35365C22.4952 3.66935 17.8355 0.5 12.5 0.5C7.16449 0.5 2.50345 3.67156 0.151018 8.35409C0.0517307 8.55442 0 8.77575 0 9.00022C0 9.22469 0.0517307 9.44602 0.151018 9.64635C2.50476 14.3307 7.16449 17.5 12.5 17.5C17.8355 17.5 22.4965 14.3284 24.849 9.64591C24.9483 9.44558 25 9.22425 25 8.99978C25 8.7753 24.9483 8.55398 24.849 8.35365ZM12.5 15.375C11.2639 15.375 10.0555 15.0011 9.02768 14.3006C7.99987 13.6001 7.19879 12.6045 6.72574 11.4396C6.25269 10.2747 6.12892 8.99293 6.37008 7.7563C6.61124 6.51967 7.20649 5.38375 8.08057 4.49219C8.95465 3.60063 10.0683 2.99347 11.2807 2.74749C12.4931 2.50151 13.7497 2.62776 14.8918 3.11027C16.0338 3.59278 17.0099 4.40988 17.6967 5.45824C18.3835 6.5066 18.75 7.73914 18.75 9C18.7504 9.83729 18.589 10.6665 18.2751 11.4401C17.9611 12.2137 17.5008 12.9167 16.9203 13.5087C16.3399 14.1008 15.6507 14.5703 14.8922 14.8906C14.1338 15.2108 13.3209 15.3754 12.5 15.375ZM12.5 4.75C12.1281 4.7553 11.7586 4.81174 11.4015 4.91779C11.6958 5.32582 11.8371 5.82794 11.7996 6.3331C11.7622 6.83826 11.5485 7.31299 11.1973 7.67121C10.8461 8.02943 10.3806 8.24741 9.88539 8.28563C9.39014 8.32384 8.89785 8.17976 8.49782 7.87951C8.27003 8.73552 8.31115 9.64285 8.61539 10.4738C8.91964 11.3047 9.47169 12.0174 10.1938 12.5115C10.916 13.0057 11.7719 13.2564 12.641 13.2284C13.5102 13.2004 14.3489 12.8951 15.039 12.3554C15.7291 11.8158 16.236 11.069 16.4882 10.2201C16.7404 9.37124 16.7253 8.46307 16.445 7.62343C16.1647 6.78379 15.6333 6.05494 14.9256 5.53949C14.2179 5.02403 13.3696 4.74791 12.5 4.75Z" fill="#E597D4" fill-opacity="0.55"/>
</svg>
